<svg width="1920" height="1080" viewBox="0 0 1920 1080" fill="none" xmlns="http://www.w3.org/2000/svg" id="data" data-layers="primary secondary code base" data-type="layerBlurGradient" >
<meta data-layers="base primary secondary ternary" id="data">
<g id="minecraft-desktop-wallpaper">
<rect id="base" width="1920" height="1080" class="base" fill="#F5F5F5"/>
<g id="primary">
<rect id="Rectangle 3" x="810" y="390" width="100" height="100" class="primary" fill="#161616"/>
<rect id="Rectangle 4" x="910" y="490" width="100" height="150" class="primary" fill="#161616"/>
<rect id="Rectangle 6" x="1010" y="590" width="50" height="100" class="primary" fill="#161616"/>
<rect id="Rectangle 7" x="860" y="590" width="50" height="100" class="primary" fill="#161616"/>
<rect id="Rectangle 5" x="1010" y="390" width="100" height="100" class="primary" fill="#161616"/>
</g>
<rect id="secondary" y="900" width="180" height="180" class="secondary" fill="#D9D9D9"/>
<rect id="secondary_2" x="180" y="720" width="180" height="180" class="secondary" fill="#D9D9D9"/>
<rect id="ternary" x="180" y="540" width="180" height="180" class="ternary" fill="#F0F0F0"/>
<rect id="ternary_2" x="360" y="720" width="180" height="180" class="ternary" fill="#F0F0F0"/>
<rect id="ternary_3" x="540" y="900" width="180" height="180" class="ternary" fill="#F0F0F0"/>
<rect id="ternary_4" x="1380" y="720" width="180" height="180" class="ternary" fill="#F0F0F0"/>
<g id="ternary_5">
<rect x="180" y="900" width="180" height="180" class="ternary" fill="#F0F0F0"/>
<rect x="180" y="900" width="180" height="180" class="ternary" fill="#F0F0F0"/>
</g>
<rect id="ternary_6" y="720" width="180" height="180" class="ternary" fill="#F0F0F0"/>
<rect id="ternary_7" y="360" width="180" height="180" class="ternary" fill="#F0F0F0"/>
<rect id="ternary_8" width="180" height="180" class="ternary" fill="#F0F0F0"/>
<rect id="ternary_9" x="1560" width="180" height="180" class="ternary" fill="#F0F0F0"/>
<rect id="ternary_10" x="1200" y="900" width="180" height="180" class="ternary" fill="#F0F0F0"/>
<rect id="ternary_11" x="1740" y="360" width="180" height="180" class="ternary" fill="#F0F0F0"/>
<rect id="ternary_12" x="540" width="180" height="180" class="ternary" fill="#F0F0F0"/>
<rect id="ternary_13" x="180" y="900" width="180" height="180" class="ternary" fill="#F0F0F0"/>
<rect id="ternary_14" x="1560" y="900" width="180" height="180" class="ternary" fill="#F0F0F0"/>
<rect id="ternary_15" x="1740" y="720" width="180" height="180" class="ternary" fill="#F0F0F0"/>
<rect id="ternary_16" x="1740" y="180" width="180" height="180" class="ternary" fill="#F0F0F0"/>
<rect id="secondary_3" x="180" width="180" height="180" class="secondary" fill="#D9D9D9"/>
<rect id="secondary_4" x="360" width="180" height="180" class="secondary" fill="#D9D9D9"/>
<rect id="secondary_5" x="1020" y="900" width="180" height="180" class="secondary" fill="#D9D9D9"/>
<rect id="secondary_6" x="1740" width="180" height="180" class="secondary" fill="#D9D9D9"/>
<rect id="secondary_7" x="1560" y="180" width="180" height="180" class="secondary" fill="#D9D9D9"/>
<rect id="secondary_8" x="1380" width="180" height="180" class="secondary" fill="#D9D9D9"/>
<rect id="secondary_9" x="1380" y="900" width="180" height="180" class="secondary" fill="#D9D9D9"/>
<rect id="secondary_10" x="1560" y="720" width="180" height="180" class="secondary" fill="#D9D9D9"/>
<rect id="secondary_11" x="1740" y="540" width="180" height="180" class="secondary" fill="#D9D9D9"/>
<rect id="secondary_12" x="360" y="540" width="180" height="180" class="secondary" fill="#D9D9D9"/>
<rect id="secondary_13" x="1740" y="900" width="180" height="180" class="secondary" fill="#D9D9D9"/>
<rect id="secondary_14" y="180" width="180" height="180" class="secondary" fill="#D9D9D9"/>
<rect id="secondary_15" x="360" y="900" width="180" height="180" class="secondary" fill="#D9D9D9"/>
<rect id="secondary_16" y="540" width="180" height="180" class="secondary" fill="#D9D9D9"/>
</g>
</svg>
