<svg width="499" height="1080" viewBox="0 0 499 1080" fill="none" xmlns="http://www.w3.org/2000/svg">
<g id="minecraft-mobile-wallpaper">
<rect id="base" width="499" height="1080" class="base" fill="#F5F5F5"/>
<rect id="Rectangle 3" x="175" y="465" width="50" height="50" class="primary" fill="#161616"/>
<rect id="Rectangle 4" x="225" y="515" width="50" height="75" class="primary" fill="#161616"/>
<rect id="Rectangle 6" x="275" y="565" width="25" height="50" class="primary" fill="#161616"/>
<rect id="Rectangle 7" x="200" y="565" width="25" height="50" class="primary" fill="#161616"/>
<rect id="Rectangle 5" x="275" y="465" width="50" height="50" class="primary" fill="#161616"/>
<rect id="ternary" y="180" width="90" height="90" class="ternary" fill="#F0F0F0"/>
<rect id="ternary_2" y="720" width="90" height="90" class="ternary" fill="#F0F0F0"/>
<rect id="ternary_3" y="900" width="90" height="90" class="ternary" fill="#F0F0F0"/>
<rect id="ternary_4" x="90" y="990" width="90" height="90" class="ternary" fill="#F0F0F0"/>
<rect id="ternary_5" x="180" y="990" width="90" height="90" class="ternary" fill="#F0F0F0"/>
<rect id="ternary_6" x="319" y="990" width="90" height="90" class="ternary" fill="#F0F0F0"/>
<rect id="ternary_7" x="409" y="900" width="90" height="90" class="ternary" fill="#F0F0F0"/>
<rect id="ternary_8" x="409" y="810" width="90" height="90" class="ternary" fill="#F0F0F0"/>
<rect id="ternary_9" width="90" height="90" class="ternary" fill="#F0F0F0"/>
<rect id="ternary_10" x="90" y="90" width="90" height="90" class="ternary" fill="#F0F0F0"/>
<rect id="ternary_11" x="319" y="90" width="90" height="90" class="ternary" fill="#F0F0F0"/>
<rect id="ternary_12" x="409" y="180" width="90" height="90" class="ternary" fill="#F0F0F0"/>
<rect id="ternary_13" x="409" width="90" height="90" class="ternary" fill="#F0F0F0"/>
<rect id="secondary" x="90" width="90" height="90" class="secondary" fill="#D9D9D9"/>
<rect id="secondary_2" x="90" y="900" width="90" height="90" class="secondary" fill="#D9D9D9"/>
<rect id="secondary_3" y="810" width="90" height="90" class="secondary" fill="#D9D9D9"/>
<rect id="secondary_4" x="409" y="90" width="90" height="90" class="secondary" fill="#D9D9D9"/>
<rect id="secondary_5" x="409" y="270" width="90" height="90" class="secondary" fill="#D9D9D9"/>
<rect id="secondary_6" y="270" width="90" height="90" class="secondary" fill="#D9D9D9"/>
<rect id="secondary_7" x="409" y="720" width="90" height="90" class="secondary" fill="#D9D9D9"/>
<rect id="secondary_8" x="90" y="810" width="90" height="90" class="secondary" fill="#D9D9D9"/>
<rect id="secondary_9" x="409" y="990" width="90" height="90" class="secondary" fill="#D9D9D9"/>
<rect id="secondary_10" x="319" width="90" height="90" class="secondary" fill="#D9D9D9"/>
<rect id="secondary_11" x="319" y="900" width="90" height="90" class="secondary" fill="#D9D9D9"/>
<rect id="secondary_12" x="319" y="810" width="90" height="90" class="secondary" fill="#D9D9D9"/>
<rect id="secondary_13" y="90" width="90" height="90" class="secondary" fill="#D9D9D9"/>
<rect id="secondary_14" y="990" width="90" height="90" class="secondary" fill="#D9D9D9"/>
</g>
</svg>
