<svg
   width="506.01562mm"
   height="1080mm"
   viewBox="0 0 506.01562 1080"
   version="1.1"
   id="svg5"
   xml:space="preserve"
   xmlns:inkscape="http://www.inkscape.org/namespaces/inkscape"
   xmlns:sodipodi="http://sodipodi.sourceforge.net/DTD/sodipodi-0.dtd"
   xmlns="http://www.w3.org/2000/svg"
   xmlns:svg="http://www.w3.org/2000/svg"><sodipodi:namedview
     id="namedview7"
     pagecolor="#ffffff"
     bordercolor="#000000"
     borderopacity="0.25"
     inkscape:showpageshadow="2"
     inkscape:pageopacity="0.0"
     inkscape:pagecheckerboard="0"
     inkscape:deskcolor="#d1d1d1"
     inkscape:document-units="mm"
     showgrid="false" /><defs
     id="defs2" /><g
     inkscape:groupmode="layer"
     id="layer2"
     inkscape:label="mobile"
     transform="translate(-1845.4688,-2097.696)"><rect
       style="opacity:1;fill:#ff4807;fill-opacity:1;stroke:none;stroke-width:2.64583"
       id="base"
       width="506.01562"
       height="1080"
       x="1845.4688"
       y="2097.696" /><circle
       style="opacity:1;fill:#ff794a;fill-opacity:1;stroke:none;stroke-width:5.01708"
       id="ternary"
       cx="2098.4766"
       cy="3085.3406"
       r="92.355469" /><path
       style="opacity:1;fill:#0d0d0d;fill-opacity:1;stroke:none;stroke-width:0.656173"
       d="m 1845.4688,3177.696 v -160.0121 l 29.9818,17.6394 69.7185,-18.0253 49.6867,57.1154 96.7516,42.0648 51.34,-19.5305 44.1041,-45.2727 76.704,-11.2221 18.7402,-33.0187 54.0414,-14.4489 14.9473,14.4489 v 170.2618 z"
       id="secondary"
       sodipodi:nodetypes="cccccccccccccc" /><path
       id="primary"
       style="opacity:1;fill:#000000;fill-opacity:1;stroke:none;stroke-width:5.83542"
       d="m 2062.4308,2637.696 -1.2924,0.5641 -5.6874,5.5699 -4.2545,3.0077 -1.0805,2.6317 0.8229,2.8208 -0.1652,1.3871 -2.4436,4.3241 -4.3241,11.1865 -0.4081,8.5035 1.8179,3.4113 4.7937,10.8821 4.4655,6.9091 4.5601,5.734 0.2347,9.5418 0.5175,6.8624 2.8197,5.9231 1.8805,8.0842 2.2556,6.8623 -2.5382,4.8883 -0.093,12.4094 -2.6328,6.4862 -6.4862,4.9829 -5.6406,2.4436 -6.2788,1.1272 -7.5781,-1.2959 -4.886,-4.6535 -2.8242,-11.3335 1.4622,-6.8133 1.9274,-6.8475 2.9917,-9.0734 3.556,-7.5781 2.2931,-5.8491 1.1637,-6.4475 0.033,-5.9163 -0.7978,-3.9549 -2.626,-5.1516 -4.8188,-3.0579 -5.6165,-0.6314 -4.7197,1.5945 -4.9191,4.853 -3.3907,5.1846 -2.3592,4.9864 -0.7648,3.3564 0.1994,3.6893 0.7647,4.3869 0.1666,2.3934 -1.5296,2.2932 -2.725,2.7912 -1.4623,2.4937 0.1994,3.6551 1.4953,2.9587 2.194,2.5587 2.3592,3.1572 3.058,-3.0568 1.0963,-4.6205 -0.5983,-4.9521 -1.1956,-6.215 -0.4331,-8.5081 0.9642,-4.5544 1.762,-3.3565 2.4927,-3.556 3.3564,-3.6232 3.2574,-1.6287 4.4871,-0.033 3.0249,2.5587 1.8611,4.5201 0.099,4.5202 -1.1967,3.6894 -2.0937,6.8133 -2.8915,7.4458 -3.0909,8.7406 -2.5929,8.0431 -2.2602,8.7748 0.1666,7.0458 1.8942,6.3483 4.0552,4.8188 5.6508,3.0579 5.8491,1.5295 6.9466,0.7979 4.7858,0.2986 0.2986,4.0882 1.5295,-0.465 6.6799,-6.0828 0.1666,3.124 -5.2838,3.2574 -1.3631,2.1609 -0.3659,4.6524 -0.6645,1.3631 0.465,1.6618 0.9973,0.6975 4.2877,-1.5284 5.9825,-4.2546 2.0936,-0.6314 -0.6975,1.9614 -3.7896,3.2232 -3.2231,2.2601 -2.9257,0.7648 h -3.3896 l -4.2546,4.3868 -2.3593,2.7263 0.1994,2.4595 3.556,1.2959 4.2216,-2.3262 3.2561,-2.9257 1.7951,-1.2959 1.5296,-0.9973 2.8573,0.2668 3.6563,-2.9588 1.7619,-2.626 0.7306,2.1279 2.3604,5.2838 2.1598,3.5571 1.0303,3.4898 0.6987,3.8888 0.2986,4.7527 0.6986,5.6827 1.794,4.6866 1.6617,3.556 3.4899,6.8475 2.2931,4.2865 0.3328,0.9642 -1.8281,1.8612 -1.2298,3.0248 2.9588,1.8613 1.4953,-0.1994 -0.3659,7.0789 -0.099,6.3483 0.5984,2.0937 2.1928,0.8319 2.7593,-0.035 2.9907,-0.5311 1.0633,-2.2931 -1.0964,-8.8751 -1.3289,-4.2535 0.5641,-1.9615 1.3632,-2.3261 -0.033,-2.9577 -3.0249,-0.3327 -0.498,-18.2802 -0.4662,-3.7554 -5.3511,-12.2978 -0.7305,-3.4237 0.5983,-4.4199 2.1598,-5.0193 0.3989,-10.203 0.066,-6.1488 0.4548,-3.0887 2.2088,-0.2826 3.7132,2.4447 5.0296,0.799 -0.8468,9.8712 -1.9261,0.8924 -2.0686,-0.7055 -0.8457,2.0219 -2.5861,0.7522 -1.6913,6.2982 -0.048,11.5625 0.095,5.8754 1.0337,3.385 2.1154,0.799 2.2087,-1.8806 1.8806,-5.6873 0.4696,-4.8415 -0.1402,-6.1569 0.1881,-0.987 1.5511,0.5163 0.7044,-2.2555 2.0686,0.1403 16.1215,-13.0192 1.411,-13.1617 -1.9273,-4.3241 -6.7221,-8.9309 -8.507,-4.6524 -2.7741,-0.5175 -0.1403,-2.3501 -1.6457,-3.0089 -2.0207,-2.9611 0.9334,-2.4903 2.1689,2.8198 5.734,1.6446 9.7299,-0.8457 0.8935,0.9403 -3.9959,3.9948 -1.4565,1.7392 0.1402,2.4914 1.8339,0.5175 5.1698,-2.5382 0.7989,-2.9143 5.5939,-6.7688 0.9869,-0.799 2.3035,-0.5175 4.7002,-4.0414 v -3.3372 l 20.5869,-23.2676 8.3201,-2.961 6.7689,1.5044 9.6353,0.6577 7.8026,-4.4177 4.8883,-9.7766 v -7.2385 l -4.3241,-9.2602 -0.9871,-4.559 2.7263,-6.1112 1.6446,-3.8535 -4.3241,1.6914 -5.734,3.0556 -4.184,-0.047 -8.7428,-2.8208 -8.4136,0.7522 -5.0764,2.961 -4.136,3.7133 -2.5382,4.8883 -0.6576,6.0645 2.0207,5.4992 1.5045,2.0207 -0.3762,13.0204 -20.8229,24.535 -2.5849,0.987 -3.0077,3.1023 -1.0349,3.4318 -4.8405,-2.4448 -10.7168,-0.3761 -0.095,-6.721 -2.3033,-6.9091 -0.2816,-8.1787 -1.1283,-3.9958 -2.0675,-2.9611 -3.8078,-1.974 -2.3034,-2.2088 -0.9391,-2.7263 0.1402,-0.9403 0.987,1.1284 1.0349,0.2348 0.987,-0.2348 -1.7871,-1.9741 -0.7511,-2.3033 -0.3294,-3.1969 0.4228,-0.611 1.1751,0.1414 0.5175,1.5045 0.5641,2.4435 0.5163,3.0089 0.4229,0.2815 0.2359,-7.3797 -1.2229,-3.2426 -0.047,-2.4447 0.3293,-1.4098 0.8925,2.4914 1.175,1.4566 0.095,-2.961 -1.3164,-4.3242 0.1881,-7.1917 -0.9869,-3.2436 -0.047,-1.6914 -2.4448,-2.1153 -0.047,-3.9013 -1.6925,-2.3035 -5.3578,-0.3761 -3.3839,1.6458 -3.6665,4.3241 -3.9481,-0.047 -1.6925,0.2815 -0.6109,1.6925 0.3294,0.9392 -2.3512,-0.2815 0.7054,0.6576 -2.1803,0.5391 -2.7251,1.7609 -0.9186,1.3563 -0.5436,0.8046 1.6617,-0.3989 2.1438,-0.2325 2.1108,0.7636 -2.1108,0.5653 -2.8425,1.8612 -1.1625,2.8254 0.3659,1.3289 0.5641,-0.897 2.4265,0.066 -0.1334,1.6618 -1.4281,1.7951 -2.4265,1.5956 -0.6645,-0.399 -0.3658,-1.6286 -1.3631,-2.0607 -1.1295,-1.6115 -1.1306,-1.6127 -5.2599,-5.5836 -1.0542,-2.2271 0.099,-1.3289 1.5284,-2.5598 2.3604,-6.3141 -0.4867,-3.3474 1.2458,-0.8457 0.3521,-2.586 1.7632,-0.4696 -0.3055,-3.5252 0.4935,-0.7762 4.3709,-0.069 2.0914,-1.4578 2.0925,-2.9849 -0.071,-1.9968 -2.3035,-2.8915 z" /></g></svg>
