<svg width="3840" height="2160" viewBox="0 0 3840 2160" fill="none" xmlns="http://www.w3.org/2000/svg">
<rect width="3840" height="2160" class="background" fill="#D1D1D1"/>
<path d="M2760 0V251.321V270L3030 0H2760Z" class="triangle" fill="#ACACAC"/>
<path d="M3840 540V288.679V270L3570 540H3840Z" class="triangle" fill="#ACACAC"/>
<path d="M3840 810V558.679V540L3570 810H3840Z" class="triangle" fill="#ACACAC"/>
<path d="M3840 1080V828.679V810L3570 1080H3840Z" class="triangle" fill="#ACACAC"/>
<path d="M3840 270V18.6792V0L3570 270H3840Z" class="triangle" fill="#ACACAC"/>
<path d="M3300 270V521.321V540L3570 270H3300Z" class="triangle" fill="#ACACAC"/>
<path d="M3300 540V791.321V810L3570 540H3300Z" class="triangle" fill="#ACACAC"/>
<path d="M3300 810V1061.32V1080L3570 810H3300Z" class="triangle" fill="#ACACAC"/>
<path d="M3570 270V18.6792V0L3300 270H3570Z" class="triangle" fill="#ACACAC"/>
<path d="M3300 540V288.679V270L3030 540H3300Z" class="triangle" fill="#ACACAC"/>
<path d="M3300 810V558.679V540L3030 810H3300Z" class="triangle" fill="#ACACAC"/>
<path d="M3300 1080V828.679V810L3030 1080H3300Z" class="triangle" fill="#ACACAC"/>
<path d="M3300 270V18.6792V0L3030 270H3300Z" class="triangle" fill="#ACACAC"/>
<path d="M2760 270V521.321V540L3030 270H2760Z" class="triangle" fill="#ACACAC"/>
<path d="M3030 810V558.679V540L2760 810H3030Z" class="triangle" fill="#ACACAC"/>
<path d="M3030 1080V828.679V810L2760 1080H3030Z" class="triangle" fill="#ACACAC"/>
<text class="triangle" fill="#ACACAC" xml:space="preserve" style="white-space: pre" font-family="Montserrat" font-size="24" font-weight="bold" letter-spacing="0em"><tspan x="2522" y="107.604">PRAJWAL.&#10;</tspan><tspan x="2522" y="131.604">DWIVEDI.&#10;</tspan><tspan x="2522" y="155.604">OFFICIAL@&#10;</tspan><tspan x="2522" y="179.604">GMAIL.COM</tspan></text>
</svg>
